<svg id="mgo-logo" xmlns="http://www.w3.org/2000/svg" viewBox="0 0 100 100" fill="black">
	<path
	      d="m 16.48,49.61 q 0,-3.83 -0.97,-5.51 q -0.94,-1.74 -3.55,-1.74 q -0.93,0 -2.04,0.15 q -1.125,0.14 -1.7,0.23 v 19.76 h -5.625 v -23.69 q 1.638,-0.47 4.25,-0.9 q 2.638,-0.41 5.575,-0.41 q 2.52,0 4.1,0.65 q 1.65,0.66 2.73,1.73 q 0.52,-0.37 1.28,-0.8 q 0.8,-0.42 1.8,-0.74 q 0.98,-0.36 2.03,-0.61 q 1.12,-0.23 2.25,-0.23 q 2.85,0 4.67,0.84 q 1.87,0.8 2.89,2.29 q 1.06,1.44 1.45,3.56 q 0.41,2.06 0.41,4.55 v 13.76 h -5.63 v -12.89 q 0,-3.83 -0.94,-5.51 q -0.94,-1.74 -3.59,-1.74 q -1.36,0 -2.57,0.48 q -1.22,0.42 -1.83,0.84 q 0.39,1.16 0.51,2.48 q 0.15,1.32 0.15,2.8 v 13.54 h -5.65 z"/>
	<path
	      d="m 46.2,49.6 q 0,3.61 1.55,5.29 q 1.6,1.62 4.08,1.62 q 1.37,0 2.53,-0.36 q 1.21,-0.38 1.96,-0.89 v -12.67 q -0.61,-0.13 -1.49,-0.23 q -0.9,-0.14 -2.25,-0.14 q -3.11,0 -4.75,2.05 q -1.63,2 -1.63,5.33 z m 15.77,10.39 q 0,5.85 -2.99,8.56 q -2.95,2.7 -9.08,2.7 q -2.25,0 -4.39,-0.36 q -2.11,-0.38 -3.84,-0.99 l 1.03,-4.81 q 1.45,0.6 3.28,0.97 q 1.85,0.38 4.02,0.38 q 3.42,0 4.87,-1.39 q 1.45,-1.41 1.45,-4.16 v -0.94 q -0.84,0.41 -2.25,0.84 q -1.35,0.42 -3.14,0.42 q -2.35,0 -4.31,-0.75 q -1.9,-0.76 -3.31,-2.21 q -1.36,-1.45 -2.16,-3.6 q -0.74,-2.19 -0.74,-5.05 q 0,-2.65 0.8,-4.9 q 0.84,-2.24 2.39,-3.83 q 1.58,-1.6 3.82,-2.48 q 2.25,-0.89 5.1,-0.89 q 2.78,0 5.24,0.41 q 2.49,0.43 4.21,0.9 z"/>
	<path
	      d="m 89.16,49.95 q 0,2.81 -0.82,5.14 q -0.81,2.32 -2.31,3.95 q -1.5,1.64 -3.62,2.55 q -2.09,0.91 -4.64,0.91 q -2.56,0 -4.65,-0.91 q -2.08,-0.91 -3.6,-2.55 q -1.5,-1.63 -2.36,-3.95 q -0.81,-2.33 -0.81,-5.14 q 0,-2.81 0.81,-5.09 q 0.86,-2.32 2.36,-3.95 q 1.55,-1.63 3.64,-2.5 q 2.1,-0.91 4.61,-0.91 q 2.5,0 4.57,0.91 q 2.14,0.87 3.65,2.5 q 1.49,1.63 2.32,3.95 q 0.85,2.28 0.85,5.09 z m -5.63,0 q 0,-3.54 -1.54,-5.57 q -1.5,-2.09 -4.22,-2.09 q -2.76,0 -4.3,2.09 q -1.5,2.03 -1.5,5.57 q 0,3.59 1.5,5.69 q 1.54,2.08 4.3,2.08 q 2.73,0 4.22,-2.08 q 1.54,-2.1 1.54,-5.69 z"/>
	<path
	      d="m 97.41,59 a 3.5,3.5 0 0 1 -3.5,3.5 a 3.5,3.5 0 0 1 -3.5,-3.5 a 3.5,3.5 0 0 1 3.5,-3.5 a 3.5,3.5 0 0 1 3.5,3.5 z"/>
</svg>
