<svg id="mgo-icon" xmlns="http://www.w3.org/2000/svg" viewBox="0 0 100 100" fill="black">
	<path d="m 49.99,-0.6112 c -4.98,0 -9.96,3.7002 -22.8,11.1212 c -25.656,14.83 -22.776,9.86 -22.776,39.49 c 0.01,29.65 -2.86,24.68 22.816,39.49 c 25.67,14.81 19.93,14.81 45.55,0 c 25.7,-14.83 22.8,-9.86 22.8,-39.5 c 0,-29.64 2.9,-24.67 -22.8,-39.48 c -12.83,-7.421 -17.81,-11.1212 -22.79,-11.1212 z m -30.41,40.4812 c 1.37,0 2.47,0.17 3.33,0.52 c 0.89,0.36 1.62,0.82 2.2,1.4 c 0.28,-0.19 0.63,-0.41 1.04,-0.65 c 0.44,-0.22 0.92,-0.42 1.46,-0.59 c 0.53,-0.2 1.07,-0.37 1.64,-0.5 c 0.61,-0.12 1.21,-0.18 1.82,-0.18 c 1.54,0 2.81,0.22 3.79,0.68 c 1,0.43 1.78,1.05 2.34,1.85 c 0.57,0.78 0.96,1.74 1.17,2.88 c 0.22,1.12 0.33,2.34 0.33,3.69 v 11.14 h -4.56 v -10.44 c 0,-2.07 -0.25,-3.56 -0.76,-4.46 c -0.51,-0.94 -1.48,-1.4 -2.91,-1.4 c -0.73,0 -1.42,0.13 -2.08,0.38 c -0.66,0.23 -1.14,0.45 -1.48,0.68 c 0.21,0.62 0.35,1.29 0.42,2.01 c 0.1,0.71 0.12,1.47 0.12,2.27 v 10.96 h -4.58 v -10.44 c 0,-2.07 -0.26,-3.56 -0.79,-4.46 c -0.5,-0.94 -1.46,-1.4 -2.87,-1.4 c -0.5,0 -1.05,0 -1.65,0.12 c -0.61,0.1 -1.06,0.13 -1.38,0.18 v 16 h -4.55 v -19.18 c 0.88,-0.25 2.03,-0.5 3.44,-0.73 c 1.43,-0.22 2.92,-0.33 4.51,-0.33 z m 32.47,0 c 1.5,0 2.92,0.11 4.25,0.33 c 1.34,0.23 2.48,0.48 3.4,0.73 v 17.15 c 0,3.16 -0.81,5.46 -2.42,6.93 c -1.59,1.46 -4.04,2.19 -7.35,2.19 c -1.22,0 -2.4,-0.1 -3.55,-0.3 c -1.15,-0.2 -2.18,-0.46 -3.11,-0.8 l 0.83,-3.89 c 0.78,0.32 1.67,0.58 2.66,0.79 c 1,0.2 2.09,0.3 3.25,0.3 c 1.85,0 3.17,-0.37 3.95,-1.12 c 0.78,-0.76 1.17,-1.88 1.17,-3.37 v -0.76 c -0.45,0.22 -1.06,0.44 -1.82,0.68 c -0.73,0.23 -1.58,0.34 -2.54,0.34 c -1.27,0 -2.43,-0.2 -3.49,-0.61 c -1.02,-0.41 -1.93,-1.01 -2.69,-1.79 c -0.73,-0.78 -1.31,-1.75 -1.75,-2.91 c -0.39,-1.19 -0.59,-2.55 -0.59,-4.09 c 0,-1.43 0.21,-2.76 0.64,-3.97 c 0.46,-1.21 1.1,-2.24 1.94,-3.1 c 0.86,-0.86 1.89,-1.54 3.09,-2.01 c 1.22,-0.48 2.6,-0.72 4.13,-0.72 z m 20.43,0 c 1.4,0 2.6,0.24 3.7,0.74 c 1.2,0.46 2.1,1.14 3,2.02 c 0.8,0.88 1.4,1.94 1.8,3.2 c 0.5,1.22 0.7,2.6 0.7,4.12 c 0,1.52 -0.2,2.9 -0.6,4.16 c -0.5,1.26 -1.1,2.32 -1.9,3.2 c -0.8,0.88 -1.8,1.57 -2.9,2.06 c -1.2,0.5 -2.4,0.74 -3.8,0.74 c -1.4,0 -2.6,-0.24 -3.7,-0.74 c -1.2,-0.49 -2.1,-1.18 -3,-2.06 c -0.8,-0.88 -1.4,-1.94 -1.9,-3.2 c -0.4,-1.26 -0.6,-2.64 -0.6,-4.16 c 0,-1.52 0.2,-2.9 0.6,-4.12 c 0.5,-1.26 1.1,-2.32 1.9,-3.2 c 0.9,-0.88 1.9,-1.56 3,-2.02 c 1.1,-0.5 2.4,-0.74 3.7,-0.74 z m -20.37,3.82 c -1.69,0 -2.97,0.56 -3.85,1.66 c -0.88,1.09 -1.33,2.52 -1.33,4.32 c 0,1.95 0.42,3.38 1.26,4.28 c 0.86,0.88 1.96,1.31 3.31,1.31 c 0.74,0 1.41,-0.1 2.04,-0.29 c 0.66,-0.2 1.19,-0.44 1.59,-0.72 v -10.26 c -0.33,-0.1 -0.73,-0.13 -1.2,-0.18 c -0.49,-0.1 -1.1,-0.12 -1.82,-0.12 z m 20.37,0.1 c -1.5,0 -2.6,0.57 -3.5,1.69 c -0.8,1.11 -1.2,2.61 -1.2,4.52 c 0,1.93 0.4,3.47 1.2,4.61 c 0.9,1.12 2,1.69 3.5,1.69 c 1.5,0 2.6,-0.57 3.4,-1.69 c 0.9,-1.14 1.3,-2.68 1.3,-4.61 c 0,-1.91 -0.4,-3.41 -1.3,-4.52 c -0.8,-1.12 -1.9,-1.69 -3.4,-1.69 z m 13.1,10.7 a 2.834,2.834 0 0 1 2.8,2.84 a 2.834,2.834 0 0 1 -2.8,2.83 a 2.834,2.834 0 0 1 -2.8,-2.83 a 2.834,2.834 0 0 1 2.8,-2.84 z"/>
</svg>
