<svg xmlns="http://www.w3.org/2000/svg" viewBox="0 0 100 100">
	<path fill="#fe6800"
	      d="m 0,0 h 100 v 100 h -100 z"/>
	<path fill="#ffffff"
	      d="m 23.19,49.69 q 0,-3.07 -0.78,-4.41 q -0.75,-1.39 -2.84,-1.39 q -0.74,0 -1.63,0.12 q -0.9,0.11 -1.36,0.18 v 15.81 h -4.5 v -18.95 q 1.31,-0.38 3.4,-0.72 q 2.11,-0.33 4.46,-0.33 q 2.02,0 3.28,0.52 q 1.32,0.53 2.18,1.38 q 0.42,-0.29 1.03,-0.64 q 0.64,-0.33 1.44,-0.59 q 0.78,-0.29 1.62,-0.49 q 0.9,-0.18 1.8,-0.18 q 2.28,0 3.74,0.67 q 1.49,0.64 2.31,1.83 q 0.85,1.16 1.16,2.85 q 0.33,1.65 0.33,3.64 v 11.01 h -4.51 v -10.31 q 0,-3.07 -0.75,-4.41 q -0.75,-1.39 -2.87,-1.39 q -1.09,0 -2.06,0.38 q -0.97,0.34 -1.46,0.67 q 0.31,0.93 0.41,1.99 q 0.12,1.05 0.12,2.24 v 10.83 h -4.52 z"/>
	<path fill="#ffffff"
	      d="m 46.96,49.68 q 0,2.89 1.24,4.23 q 1.28,1.3 3.27,1.3 q 1.09,0 2.02,-0.29 q 0.97,-0.3 1.57,-0.71 v -10.14 q -0.49,-0.1 -1.19,-0.18 q -0.72,-0.11 -1.8,-0.11 q -2.49,0 -3.8,1.64 q -1.31,1.6 -1.31,4.26 z m 12.61,8.31 q 0,4.68 -2.39,6.85 q -2.36,2.16 -7.26,2.16 q -1.8,0 -3.51,-0.29 q -1.69,-0.3 -3.07,-0.79 l 0.82,-3.85 q 1.16,0.48 2.63,0.78 q 1.48,0.3 3.21,0.3 q 2.74,0 3.9,-1.11 q 1.16,-1.13 1.16,-3.33 v -0.75 q -0.67,0.33 -1.8,0.67 q -1.08,0.34 -2.51,0.34 q -1.88,0 -3.45,-0.6 q -1.52,-0.61 -2.65,-1.77 q -1.09,-1.16 -1.73,-2.88 q -0.59,-1.75 -0.59,-4.04 q 0,-2.12 0.64,-3.92 q 0.67,-1.79 1.91,-3.06 q 1.27,-1.28 3.06,-1.99 q 1.8,-0.71 4.08,-0.71 q 2.22,0 4.19,0.33 q 1.99,0.34 3.36,0.72 z"/>
	<path fill="#ffffff"
	      d="m 81.32,49.96 q 0,2.25 -0.65,4.11 q -0.65,1.86 -1.85,3.16 q -1.2,1.31 -2.9,2.04 q -1.67,0.73 -3.71,0.73 q -2.04,0 -3.71,-0.73 q -1.66,-0.73 -2.88,-2.04 q -1.2,-1.3 -1.89,-3.16 q -0.65,-1.86 -0.65,-4.11 q 0,-2.25 0.65,-4.07 q 0.69,-1.86 1.89,-3.16 q 1.23,-1.31 2.91,-2 q 1.68,-0.73 3.68,-0.73 q 2,0 3.66,0.73 q 1.71,0.69 2.92,2 q 1.19,1.3 1.85,3.16 q 0.68,1.82 0.68,4.07 z m -4.5,0 q 0,-2.83 -1.23,-4.46 q -1.2,-1.67 -3.38,-1.67 q -2.2,0 -3.43,1.67 q -1.21,1.63 -1.21,4.46 q 0,2.87 1.21,4.55 q 1.23,1.67 3.43,1.67 q 2.19,0 3.38,-1.67 q 1.23,-1.68 1.23,-4.55 z"/>
	<path fill="#ffffff"
	      d="m 87.92,57.2 a 2.8,2.8 0 0 1 -2.8,2.8 a 2.8,2.8 0 0 1 -2.8,-2.8 a 2.8,2.8 0 0 1 2.8,-2.8 a 2.8,2.8 0 0 1 2.8,2.8 z"/>
</svg>
